# xmcd CD database file
#
# Track frame offsets:
#	150
#	19870
#	54917
#	71220
#	101220
#	129270
#	154545
#	167145
#	196623
#
# Disc length: 2760 seconds
#
# Revision: 0
# Processed by: cddbd v1.5PL3 Copyright (c) Steve Scherf et al.
# Submitted via: CDex 1.51
#
DISCID=6f0ac609
DTITLE=Bruno Angelini - Empreintes
DYEAR=2003
DGENRE=Jazz
TTITLE0=Aurores
TTITLE1=Autour De Sammy
TTITLE2=Confidences
TTITLE3=Bokhyo
TTITLE4=Morceau De Sable
TTITLE5=Une Longue Traversée
TTITLE6=Caprices
TTITLE7=K Particulier
TTITLE8=Valentin Danse
EXTD=YEAR: 2003
EXTT0=
EXTT1=
EXTT2=
EXTT3=
EXTT4=
EXTT5=
EXTT6=
EXTT7=
EXTT8=
PLAYORDER=
